<mxfile type="github" version="12.8.4" etag="0pfrWfVzO_4i06t3TJR9" agent="Mozilla/5.0 (Windows NT 10.0; Win64; x64) AppleWebKit/537.36 (KHTML, like Gecko) Chrome/64.0.3282.140 Safari/537.36 Edge/17.17134" modified="2020-03-13T20:20:25.040Z" host="app.diagrams.net">
  <diagram id="5AQGOBNZq0T4q5D-9j6F" name="Page-1">
    <mxGraphModel grid="1" shadow="0" math="0" pageHeight="1169" pageWidth="827" pageScale="1" page="1" fold="1" arrows="1" connect="1" tooltips="1" guides="1" gridSize="10" dy="500" dx="798">
      <root>
        <mxCell id="0" />
        <mxCell id="1" parent="0" />
        <mxCell id="AUiHfX_0IIfwATKA6DHc-1" value="Archivo&lt;br&gt;Carrefour" parent="1" style="shape=note;whiteSpace=wrap;html=1;backgroundOutline=1;darkOpacity=0.05;" vertex="1">
          <mxGeometry as="geometry" x="40" y="40" width="80" height="100" />
        </mxCell>
        <mxCell id="AUiHfX_0IIfwATKA6DHc-3" value="Staging&lt;br&gt;Base Telemarketing" parent="1" style="rounded=1;whiteSpace=wrap;html=1;" vertex="1">
          <mxGeometry as="geometry" x="160" y="60" width="120" height="60" />
        </mxCell>
        <mxCell id="AUiHfX_0IIfwATKA6DHc-4" value="Normalizacion" parent="1" style="shape=process;whiteSpace=wrap;html=1;backgroundOutline=1;" vertex="1">
          <mxGeometry as="geometry" x="160" y="150" width="120" height="60" />
        </mxCell>
      </root>
    </mxGraphModel>
  </diagram>
</mxfile>
